<?xml version="1.0" encoding="UTF-8"?>
<svg xmlns="http://www.w3.org/2000/svg" viewBox="0 0 87 73" width="87" height="73">
  <path d="M 55.917 24.208 L 46.833 24.125 L 44.167 23.458 L 42.417 22.292 L 41.458 21.417 L 40.625 20.250 L 40.125 19.833 L 39.875 19.250 L 39.375 18.750 L 39.292 18.083 L 39.042 17.667 L 38.125 17.000 L 37.000 15.625 L 36.083 15.375 L 35.000 14.792 L 33.833 14.542 L 28.500 14.542 L 25.250 14.375 L 24.542 13.917 L 24.375 13.250 L 25.417 11.792 L 26.667 11.375 L 28.000 10.625 L 28.583 10.458 L 29.917 9.625 L 33.250 8.708 L 35.083 8.458 L 37.000 7.708 L 40.750 7.458 L 46.250 7.625 L 47.333 7.875 L 48.667 8.458 L 50.000 8.625 L 51.167 9.042 L 53.417 9.542 L 54.917 10.458 L 55.917 10.708 L 57.000 11.208 L 57.583 11.542 L 58.333 12.292 L 59.500 12.708 L 60.667 13.458 L 62.500 15.042 L 63.167 15.792 L 63.833 16.208 L 65.167 17.792 L 65.875 18.250 L 66.792 19.333 L 67.375 20.333 L 68.125 21.167 L 68.625 22.167 L 68.625 22.833 L 68.375 23.333 L 67.917 23.792 L 66.833 24.125 L 55.917 24.208 Z M 70.833 39.792 L 70.000 39.792 L 69.333 39.625 L 46.083 39.625 L 44.583 39.458 L 42.583 38.542 L 41.667 37.792 L 41.042 36.833 L 40.042 35.833 L 39.708 34.917 L 38.792 33.417 L 37.167 31.958 L 36.750 31.708 L 36.000 31.542 L 34.917 30.708 L 34.083 30.542 L 13.417 30.458 L 12.750 30.292 L 12.125 29.750 L 11.958 29.250 L 11.958 28.083 L 12.292 27.167 L 13.042 26.167 L 13.292 24.833 L 14.208 23.333 L 15.167 22.625 L 16.083 22.292 L 32.667 22.208 L 35.500 22.542 L 37.250 23.292 L 38.667 23.708 L 40.667 24.792 L 41.083 25.292 L 42.417 26.125 L 43.958 27.750 L 44.625 28.750 L 46.417 30.375 L 48.917 31.375 L 50.833 31.708 L 69.833 31.708 L 70.917 31.958 L 72.167 32.625 L 72.792 33.333 L 73.125 34.417 L 73.292 37.500 L 73.125 38.083 L 72.500 39.125 L 71.833 39.542 L 70.833 39.792 Z M 66.250 56.042 L 53.000 56.042 L 47.583 55.875 L 47.333 55.958 L 45.167 55.625 L 44.417 55.375 L 43.667 54.792 L 41.750 53.708 L 40.792 52.333 L 40.042 51.667 L 39.875 51.250 L 39.375 50.750 L 39.292 50.167 L 38.875 49.417 L 37.958 48.667 L 37.500 47.958 L 36.833 47.542 L 36.167 47.458 L 35.667 47.125 L 34.750 46.792 L 32.667 46.458 L 13.583 46.458 L 12.667 46.292 L 11.917 45.958 L 11.125 45.250 L 10.375 43.667 L 10.292 42.417 L 10.125 41.833 L 10.208 40.000 L 10.542 39.333 L 11.000 38.875 L 11.750 38.542 L 12.750 38.375 L 35.750 38.458 L 37.917 38.792 L 40.250 39.792 L 42.708 41.667 L 43.208 42.333 L 43.542 43.083 L 44.625 44.333 L 44.875 44.917 L 45.583 45.625 L 47.500 46.625 L 48.167 47.208 L 49.083 47.542 L 69.917 47.625 L 71.083 47.958 L 71.542 48.750 L 71.542 49.667 L 71.042 51.500 L 70.042 53.667 L 69.625 54.167 L 69.208 55.000 L 68.583 55.625 L 67.583 55.958 L 66.250 56.042 Z M 44.500 70.958 L 40.167 70.958 L 36.417 70.458 L 34.833 69.708 L 32.917 69.458 L 30.750 68.708 L 29.333 68.375 L 28.750 67.875 L 27.667 67.375 L 27.417 67.375 L 26.833 66.958 L 25.750 66.542 L 24.667 65.625 L 22.417 64.458 L 21.458 63.583 L 21.208 63.083 L 20.833 62.708 L 20.333 62.458 L 19.667 61.792 L 19.333 61.625 L 19.125 61.167 L 17.458 59.583 L 17.208 58.917 L 16.125 58.000 L 15.292 56.833 L 15.042 55.750 L 15.042 55.333 L 15.292 54.667 L 15.917 54.208 L 16.667 54.042 L 34.750 53.958 L 38.000 54.292 L 38.833 54.542 L 40.583 55.542 L 41.667 56.625 L 42.500 57.125 L 43.458 58.750 L 44.042 59.333 L 44.625 60.500 L 45.750 61.375 L 46.833 62.458 L 48.250 63.208 L 50.333 63.625 L 58.417 63.625 L 58.917 63.792 L 59.292 64.167 L 59.292 64.833 L 58.167 66.292 L 57.750 66.625 L 57.167 66.792 L 56.667 67.208 L 55.333 67.708 L 53.750 68.625 L 50.667 69.458 L 49.083 69.625 L 47.500 70.375 L 44.500 70.958 Z" fill="#FFFFFF" fill-rule="evenodd"/>
</svg>
